{
  "accessors": [
    {
      "bufferView": 2,
      "componentType": 5126,
      "count": 2149,
      "max": [
        281.21392822265625,
        813.8137817382813,
        340.6054992675781
      ],
      "min": [
        -281.21392822265625,
        -241.126220703125,
        -503.4886779785156
      ],
      "type": "VEC3"
    },
    {
      "bufferView": 2,
      "byteOffset": 25788,
      "componentType": 5126,
      "count": 2149,
      "max": [
        0.9999386668205261,
        0.9973686337471008,
        0.9998761415481567
      ],
      "min": [
        -0.9999387860298157,
        -0.9992749691009521,
        -0.9991294741630554
      ],
      "type": "VEC3"
    },
    {
      "bufferView": 1,
      "componentType": 5126,
      "count": 2149,
      "max": [
        0.9911643266677856,
        0.9933056831359863
      ],
      "min": [
        0.009553402662277222,
        0.01063220389187336
      ],
      "type": "VEC2"
    },
    {
      "bufferView": 0,
      "componentType": 5125,
      "count": 6138,
      "type": "SCALAR"
    }
  ],
  "asset": {
    "extras": {
      "author": "KPMisParrot (https://sketchfab.com/KPMisParrot)",
      "license": "CC-BY-4.0 (http://creativecommons.org/licenses/by/4.0/)",
      "source": "https://sketchfab.com/3d-models/giant-skull-gorilla-tag-63b4bc5b17e743928d02a0cc59f230fa",
      "title": "Giant Skull Gorilla Tag"
    },
    "generator": "Sketchfab-15.25.0",
    "version": "2.0"
  },
  "bufferViews": [
    {
      "buffer": 0,
      "byteLength": 24552,
      "name": "floatBufferViews",
      "target": 34963
    },
    {
      "buffer": 0,
      "byteLength": 17192,
      "byteOffset": 24552,
      "byteStride": 8,
      "name": "floatBufferViews",
      "target": 34962
    },
    {
      "buffer": 0,
      "byteLength": 51576,
      "byteOffset": 41744,
      "byteStride": 12,
      "name": "floatBufferViews",
      "target": 34962
    }
  ],
  "buffers": [
    {
      "byteLength": 93320,
      "uri": "scene.bin"
    }
  ],
  "images": [
    {
      "uri": "textures/GiantSkull_baseColor.png"
    }
  ],
  "materials": [
    {
      "doubleSided": true,
      "name": "GiantSkull",
      "pbrMetallicRoughness": {
        "baseColorTexture": {
          "index": 0
        },
        "metallicFactor": 0.0,
        "roughnessFactor": 0.6
      }
    }
  ],
  "meshes": [
    {
      "name": "GiantSkull_GiantSkull_0",
      "primitives": [
        {
          "attributes": {
            "NORMAL": 1,
            "POSITION": 0,
            "TEXCOORD_0": 2
          },
          "indices": 3,
          "material": 0,
          "mode": 4
        }
      ]
    }
  ],
  "nodes": [
    {
      "children": [
        1
      ],
      "matrix": [
        1.0,
        0.0,
        0.0,
        0.0,
        0.0,
        2.220446049250313e-16,
        -1.0,
        0.0,
        0.0,
        1.0,
        2.220446049250313e-16,
        0.0,
        0.0,
        0.0,
        0.0,
        1.0
      ],
      "name": "Sketchfab_model"
    },
    {
      "children": [
        2
      ],
      "matrix": [
        0.009999999776482582,
        0.0,
        0.0,
        0.0,
        0.0,
        0.0,
        0.009999999776482582,
        0.0,
        0.0,
        -0.009999999776482582,
        0.0,
        0.0,
        0.0,
        0.0,
        0.0,
        1.0
      ],
      "name": "d086e271d90249888d0215550fcf0612.fbx"
    },
    {
      "children": [
        3
      ],
      "name": "RootNode"
    },
    {
      "children": [
        4
      ],
      "name": "GiantSkull"
    },
    {
      "mesh": 0,
      "name": "GiantSkull_GiantSkull_0"
    }
  ],
  "samplers": [
    {
      "magFilter": 9729,
      "minFilter": 9987,
      "wrapS": 10497,
      "wrapT": 10497
    }
  ],
  "scene": 0,
  "scenes": [
    {
      "name": "Sketchfab_Scene",
      "nodes": [
        0
      ]
    }
  ],
  "textures": [
    {
      "sampler": 0,
      "source": 0
    }
  ]
}
